HIERARCHY
ROOT Hips
{
	OFFSET 0.00000 0.00000 0.00000
	CHANNELS 6 Xposition Yposition Zposition Zrotation Yrotation Xrotation 
	JOINT LHipJoint
	{
		OFFSET 0 0 0
		CHANNELS 3 Zrotation Yrotation Xrotation
		JOINT LeftHip
		{
			OFFSET 1.57093 -1.69714 0.87455
			CHANNELS 3 Zrotation Yrotation Xrotation
			JOINT LeftKnee
			{
				OFFSET 2.48056 -6.81529 0.00000
				CHANNELS 3 Zrotation Yrotation Xrotation
				JOINT LeftAnkle
				{
					OFFSET 2.62558 -7.21374 0.00000
					CHANNELS 3 Zrotation Yrotation Xrotation
					JOINT LeftToe
					{
						OFFSET 0.17911 -0.49210 2.16707
						CHANNELS 3 Zrotation Yrotation Xrotation
						End Site
						{
							OFFSET 0.00000 -0.00000 1.11848
						}
					}
				}
			}
		}
	}
	JOINT RHipJoint
	{
		OFFSET 0 0 0
		CHANNELS 3 Zrotation Yrotation Xrotation
		JOINT RightHip
		{
			OFFSET -1.69739 -1.69715 0.87455
			CHANNELS 3 Zrotation Yrotation Xrotation
			JOINT RightKnee
			{
				OFFSET -2.33658 -6.41972 0.00000
				CHANNELS 3 Zrotation Yrotation Xrotation
				JOINT RightAnkle
				{
					OFFSET -2.60856 -7.16696 0.00000
					CHANNELS 3 Zrotation Yrotation Xrotation
					JOINT RightToe
					{
						OFFSET -0.20854 -0.57296 2.11053
						CHANNELS 3 Zrotation Yrotation Xrotation
						End Site
						{
							OFFSET -0.00000 -0.00000 1.09848
						}
					}
				}
			}
		}
	}
	JOINT lowerback
	{
		OFFSET 0 0 0
		CHANNELS 3 Zrotation Yrotation Xrotation
		JOINT Chest
		{
			OFFSET 0.02563 2.15732 -0.03270
			CHANNELS 3 Zrotation Yrotation Xrotation
			JOINT Chest2
			{
				OFFSET 0.00281 2.14662 0.09285
				CHANNELS 3 Zrotation Yrotation Xrotation
				JOINT lowerneck
				{
					OFFSET 0 0 0
					CHANNELS 3 Zrotation Yrotation Xrotation
					JOINT Neck
					{
						OFFSET -0.04440 1.68397 0.17601
						CHANNELS 3 Zrotation Yrotation Xrotation
						JOINT Head
						{
							OFFSET 0.06040 1.66995 -0.35615
							CHANNELS 3 Zrotation Yrotation Xrotation
							End Site
							{
								OFFSET 0.02405 1.72189 -0.14044
							}
						}
					}
				}
				JOINT LeftCollar
				{
					OFFSET 0 0 0
					CHANNELS 3 Zrotation Yrotation Xrotation
					JOINT LeftShoulder
					{
						OFFSET 2.98955 1.90907 -0.21660
CHANNELS 3 Zrotation Xrotation Yrotation
						JOINT LeftElbow
						{
OFFSET 0 -4.913770 0.000000
CHANNELS 3 Zrotation Xrotation Yrotation
							JOINT LeftWrist
							{
OFFSET 0 -3.002910 -0.000000
CHANNELS 3 Zrotation Xrotation Yrotation
								JOINT lhand
								{
									OFFSET 0 0 0
CHANNELS 3 Zrotation Xrotation Yrotation
									JOINT LFingers
									{
OFFSET 0 -0.450920 -0.000000
CHANNELS 3 Zrotation Xrotation Yrotation
										End Site
										{
OFFSET 0 -0.363550 -0.000000
										}
									}
								}
								JOINT LThumb
								{
OFFSET 0 0.000000 0.000000
CHANNELS 3 Zrotation Xrotation Yrotation
									End Site
									{
OFFSET 0 -0.369100 0.369100
									}
								}
							}
						}
					}
				}
				JOINT RightCollar
				{
					OFFSET 0 0 0
					CHANNELS 3 Zrotation Yrotation Xrotation
					JOINT RightShoulder
					{
						OFFSET -2.80452 1.90886 -0.21152
CHANNELS 3 Zrotation Xrotation Yrotation
						JOINT RightElbow
						{
OFFSET 0 -4.867250 0.000000
CHANNELS 3 Zrotation Xrotation Yrotation
							JOINT RightWrist
							{
OFFSET 0 -3.171440 -0.000000
CHANNELS 3 Zrotation Xrotation Yrotation
								JOINT rhand
								{
									OFFSET 0 0 0
CHANNELS 3 Zrotation Xrotation Yrotation
									JOINT RFingers
									{
OFFSET 0 -0.419370 -0.000000
CHANNELS 3 Zrotation Xrotation Yrotation
										End Site
										{
OFFSET 0 -0.338100 -0.000000
										}
									}
								}
								JOINT RThumb
								{
OFFSET 0 0.000000 0.000000
CHANNELS 3 Zrotation Xrotation Yrotation
									End Site
									{
OFFSET 0 -0.343270 0.343270
									}
								}
							}
						}
					}
				}
			}
		}
	}
}
MOTION
Frames: 8
Frame Time: 0.008333333333333333
6.997500 16.542005 19.635591 -0.328453 -21.680960 12.645020 0.000000 0.000000 0.000000 -20.252892 -5.024879 -23.193954 4.278677 12.522289 37.605574 0.626522 23.025583 -36.085787 2.034199 8.936523 25.597262 0.000000 0.000000 0.000000 8.025635 21.136217 -19.566768 -2.223219 -9.316390 26.790104 -0.558759 8.304117 -13.678116 -0.125692 2.285121 -6.294268 0.241883 0.345534 -15.557177 0.944764 0.323955 -3.553988 0.920851 0.142477 4.937987 1.094588 1.050347 -17.254147 -2.340756 1.731710 23.460378 -0.779186 0.589268 10.395541 0.000000 0.000000 0.000000 55.018673 -22.771328 -2.785821 130.759281 -52.683875 94.430762 3.265963 -96.981372 -12.941156 0.000000 0.000000 0.000000 -7.125000 0.000000 0.000000 -21.357226 41.907367 -1.716776 0.000000 0.000000 0.000000 -71.638366 -31.883873 -5.602548 -116.329012 -57.210328 -82.587909 15.759737 -64.801713 -1.656157 0.000000 0.000000 0.000000 7.125000 0.000000 0.000000 31.162153 27.310394 15.676673
7.397242 16.454177 19.753941 -0.377999 -33.941288 12.555185 0.000000 0.000000 0.000000 -23.728180 0.184923 -24.871672 4.560398 12.870868 38.887211 1.340904 25.112202 -41.892635 2.895060 10.523201 30.688129 0.000000 0.000000 0.000000 4.660654 26.081738 -23.025712 -2.353837 -9.567096 27.586011 0.000437 14.262022 -10.008989 -0.138850 2.401237 -6.615926 1.082331 0.105268 -15.536819 0.739439 -0.137779 -3.490612 0.137727 -0.083789 4.998022 4.484625 4.100614 -15.782585 -6.771281 6.215614 22.866643 -2.309410 2.436108 10.270610 0.000000 0.000000 0.000000 57.688111 -25.496870 1.182284 121.626226 -55.860314 87.008377 8.448344 -90.902622 -13.237859 0.000000 0.000000 0.000000 -7.125000 0.000000 0.000000 -17.005220 42.702167 -0.995425 0.000000 0.000000 0.000000 -78.398220 -34.822005 -11.955253 -108.513268 -58.664425 -75.961023 6.669901 -65.321226 -1.505693 0.000000 0.000000 0.000000 7.125000 0.000000 0.000000 25.074316 27.973075 11.426507
7.856747 16.312965 19.901908 -0.538607 -46.316247 12.565855 0.000000 0.000000 0.000000 -27.414916 4.995859 -28.183213 5.098733 13.494119 41.247617 2.423849 26.683570 -47.754089 3.675591 11.715682 34.733449 0.000000 0.000000 0.000000 0.999523 30.871280 -27.516568 -2.445122 -9.737429 28.130553 1.001865 20.877275 -4.681179 -0.048369 1.418448 -3.900873 2.678368 -0.103937 -14.966821 0.277205 -0.644090 -3.523243 -1.346227 -0.327369 4.627452 7.612421 7.342613 -13.734032 -10.816739 11.001482 21.742280 -3.610467 4.506531 10.249193 0.000000 0.000000 0.000000 59.452245 -28.779914 3.573340 107.814538 -58.764454 75.363623 13.688786 -86.208611 -16.215561 0.000000 0.000000 0.000000 -7.125000 0.000000 0.000000 -13.251254 46.208555 0.402263 0.000000 0.000000 0.000000 -83.929283 -35.249933 -17.510938 -100.316705 -59.593400 -68.922314 -1.261225 -63.775352 -0.525471 0.000000 0.000000 0.000000 7.125000 0.000000 0.000000 19.526004 29.149842 7.969887
8.352749 16.140040 20.114792 0.917676 -58.836962 11.256661 0.000000 0.000000 0.000000 -32.498785 10.200369 -32.504356 5.538554 13.965730 43.100368 3.493283 27.843751 -52.389857 4.078004 12.263500 36.670655 0.000000 0.000000 0.000000 -3.723810 35.002696 -33.255092 -2.584248 -9.989450 28.942495 2.338591 26.595306 3.581070 -0.040640 -1.291851 3.552406 4.507166 -0.374614 -13.929017 -0.410879 -1.209530 -3.469104 -3.188878 -0.607912 4.039373 10.281648 10.929468 -10.749325 -14.573605 16.311409 19.394888 -4.617298 6.942942 10.032411 0.000000 0.000000 0.000000 60.106004 -30.327496 4.902398 88.779964 -59.991920 58.943436 15.721740 -82.707850 -17.470933 0.000000 0.000000 0.000000 -7.125000 0.000000 0.000000 -11.766864 47.732690 0.803618 0.000000 0.000000 0.000000 -88.097991 -35.328254 -22.196564 -87.920303 -59.982478 -58.199048 -8.091565 -61.214986 -0.207021 0.000000 0.000000 0.000000 7.125000 0.000000 0.000000 14.412802 29.608928 5.569869
8.832831 15.959555 20.399004 4.031238 -67.785771 7.866456 0.000000 0.000000 0.000000 -37.357190 14.302850 -36.291731 5.894073 14.324896 44.555101 3.966315 28.743971 -54.572890 4.073280 12.257275 36.648327 0.000000 0.000000 0.000000 -7.456552 37.129108 -37.604563 -2.699799 -10.192384 29.602000 2.858901 28.334338 9.860554 -0.387763 -3.998695 11.072947 6.877920 -1.132720 -12.120309 -0.766914 -2.404445 -2.834383 -5.043423 -1.181215 3.492471 11.444396 13.860852 -9.136525 -16.602479 20.614889 17.796341 -4.807649 8.937066 10.172538 0.000000 0.000000 0.000000 59.086379 -32.576624 5.716397 69.596710 -58.364649 42.427477 18.560323 -76.527077 -19.551765 0.000000 0.000000 0.000000 -7.125000 0.000000 0.000000 -9.739176 50.264376 1.274046 0.000000 0.000000 0.000000 -91.397609 -33.128998 -26.800716 -72.512778 -58.810704 -44.916275 -15.072956 -58.885224 -0.168980 0.000000 0.000000 0.000000 7.125000 0.000000 0.000000 9.016199 29.744346 3.393013
9.230958 15.790703 20.721775 7.127637 -69.844630 4.092021 0.000000 0.000000 0.000000 -40.590950 15.824640 -37.522564 6.134711 14.557597 45.520032 3.762075 29.148874 -54.291630 3.750165 11.820331 35.099213 0.000000 0.000000 0.000000 -10.622628 37.668781 -38.897498 -2.869902 -10.481430 30.550337 3.059024 29.237513 9.461918 -0.372461 -3.920063 10.851839 8.559546 -3.302986 -10.539638 0.700768 -5.435985 -1.519953 -4.759204 -2.614578 3.577855 11.097443 15.878376 -9.021040 -18.450394 24.016063 17.879932 -4.726436 10.265536 10.977469 0.000000 0.000000 0.000000 55.440027 -37.110893 3.409993 50.953851 -53.372541 26.937918 21.975531 -65.793750 -20.928425 0.000000 0.000000 0.000000 -7.125000 0.000000 0.000000 -6.817779 52.264297 1.223785 0.000000 0.000000 0.000000 -95.364328 -28.526332 -32.298593 -57.701783 -55.665481 -32.436048 -19.671171 -57.040197 1.242090 0.000000 0.000000 0.000000 7.125000 0.000000 0.000000 5.507410 31.270617 1.856071
9.525918 15.656028 21.007255 10.883750 -67.394303 0.101344 0.000000 0.000000 0.000000 -43.495103 15.136584 -36.193105 6.015495 14.443333 45.043932 3.396940 28.807898 -52.898026 3.521928 11.495408 33.969483 0.000000 0.000000 0.000000 -13.724320 36.046852 -38.673261 -3.157135 -10.945130 32.095085 3.068167 29.744779 5.645611 -0.233651 -3.110001 8.585162 9.093582 -5.426928 -9.934706 2.486860 -8.448349 0.230124 -3.545331 -3.981495 4.873400 11.576487 16.682097 -8.847102 -20.451702 25.594537 17.630279 -5.145967 10.858104 11.550650 0.000000 0.000000 0.000000 51.987111 -45.558605 -3.974641 33.865380 -43.981132 14.020662 19.432142 -49.973413 -17.465117 0.000000 0.000000 0.000000 -7.125000 0.000000 0.000000 -8.270965 48.255144 0.668113 0.000000 0.000000 0.000000 -96.120434 -21.227462 -39.814854 -45.957987 -51.228037 -22.983594 -22.200883 -56.838944 2.228849 0.000000 0.000000 0.000000 7.125000 0.000000 0.000000 3.542052 32.373525 1.097003
9.700073 15.586686 21.236165 14.561551 -61.786631 -2.839108 0.000000 0.000000 0.000000 -46.009860 12.070652 -31.935919 5.469546 13.893768 42.813701 2.469302 28.092484 -49.231927 3.089664 10.838689 31.737796 0.000000 0.000000 0.000000 -17.038492 32.312527 -37.222904 -3.474152 -11.425634 33.729350 2.710405 29.636460 -0.148592 -0.049899 -1.439488 3.959017 8.310691 -6.778877 -10.373953 3.954380 -10.375503 1.011668 -1.954393 -4.889562 6.143865 12.632799 15.852615 -8.179108 -20.912925 24.539493 18.215181 -5.759288 10.465751 11.673850 0.000000 0.000000 0.000000 43.790328 -56.311824 -17.634157 24.014772 -35.178256 7.715701 13.429086 -37.591909 -11.933745 0.000000 0.000000 0.000000 -7.125000 0.000000 0.000000 -12.308366 41.914108 -0.955931 0.000000 0.000000 0.000000 -90.017548 -10.848636 -45.196643 -39.062899 -47.504289 -17.745335 -24.777898 -58.404587 4.424152 0.000000 0.000000 0.000000 7.125000 0.000000 0.000000 1.552770 34.847067 0.387073
